<svg width="44" height="15" viewBox="0 0 44 15" fill="none" xmlns="http://www.w3.org/2000/svg">
<path d="M42.2445 14.1C41.8712 14.1 41.5512 13.9667 41.2845 13.7C41.0179 13.42 40.8845 13.0934 40.8845 12.72C40.8845 12.3467 41.0179 12.0267 41.2845 11.76C41.5512 11.48 41.8712 11.34 42.2445 11.34C42.6179 11.34 42.9379 11.48 43.2045 11.76C43.4845 12.0267 43.6245 12.3467 43.6245 12.72C43.6245 13.0934 43.4845 13.42 43.2045 13.7C42.9379 13.9667 42.6179 14.1 42.2445 14.1Z" fill="#262626"/>
<path d="M33.8785 14V13.68L35.5385 12.86V1.93999L33.8785 1.11999V0.799988H39.7185V1.11999L38.0585 1.93999V12.86L39.7185 13.68V14H33.8785Z" fill="#262626"/>
<path d="M19.1852 14V13.68L20.4252 13L25.6052 0.700012H27.0052L32.1252 12.98L33.4852 13.68V14H27.7252V13.68L29.4652 12.98L28.0452 9.50001H23.2652L21.8452 12.98L23.5052 13.68V14H19.1852ZM23.7052 8.40001H27.5852L25.6452 3.64001L23.7052 8.40001Z" fill="#262626"/>
<path d="M12.9443 14.2C12.2243 14.2 11.6176 14.0266 11.1243 13.68C10.6443 13.3333 10.4043 12.8466 10.4043 12.22V5.83997H8.88428V5.63997L10.6843 4.91997L12.4443 2.71997H12.7243V4.91997H15.4443V5.83997H12.7243V11.78C12.7243 12.1133 12.8709 12.3666 13.1643 12.54C13.4709 12.7 13.8243 12.78 14.2243 12.78C14.4776 12.78 14.7043 12.7666 14.9043 12.74C15.1176 12.7133 15.3109 12.68 15.4843 12.64L15.5443 12.66V12.94C15.3576 13.26 15.0309 13.5533 14.5643 13.82C14.1109 14.0733 13.5709 14.2 12.9443 14.2Z" fill="#262626"/>
<path d="M5.19999 14.2C3.85332 14.2 2.79332 13.8066 2.01999 13.02C1.24665 12.2333 0.859985 11.1866 0.859985 9.87997C0.859985 8.86664 1.06665 7.9733 1.47999 7.19997C1.90665 6.42664 2.47332 5.81997 3.17999 5.37997C3.88665 4.93997 4.66665 4.71997 5.51999 4.71997C6.58665 4.71997 7.41999 5.08664 8.01999 5.81997C8.61999 6.5533 8.92665 7.58664 8.93999 8.91997L8.85999 9.01997H3.09999C3.09999 9.60664 3.20665 10.1533 3.41999 10.66C3.63332 11.1533 3.97332 11.5533 4.43999 11.86C4.91999 12.1666 5.55999 12.32 6.35999 12.32C6.73332 12.32 7.13332 12.2666 7.55999 12.16C7.98665 12.04 8.43332 11.86 8.89999 11.62H8.95999V11.9C8.63999 12.5533 8.15332 13.1 7.49999 13.54C6.84665 13.98 6.07999 14.2 5.19999 14.2ZM5.11999 5.61997C4.58665 5.61997 4.14665 5.83997 3.79999 6.27997C3.46665 6.70664 3.25332 7.31997 3.15999 8.11997H6.99999C6.87999 7.19997 6.65999 6.5533 6.33999 6.17997C6.03332 5.80664 5.62665 5.61997 5.11999 5.61997Z" fill="#262626"/>
</svg>
